<svg width="500" height="500" viewBox="0 0 500 500" xmlns="http://www.w3.org/2000/svg">
  <!-- QR Code Pattern - White background -->
  <rect width="500" height="500" fill="white"/>
  
  <!-- Top-left finder pattern -->
  <rect x="25" y="25" width="125" height="125" fill="black"/>
  <rect x="50" y="50" width="75" height="75" fill="white"/>
  <rect x="75" y="75" width="25" height="25" fill="black"/>
  
  <!-- Top-right finder pattern -->
  <rect x="350" y="25" width="125" height="125" fill="black"/>
  <rect x="375" y="50" width="75" height="75" fill="white"/>
  <rect x="400" y="75" width="25" height="25" fill="black"/>
  
  <!-- Bottom-left finder pattern -->
  <rect x="25" y="350" width="125" height="125" fill="black"/>
  <rect x="50" y="375" width="75" height="75" fill="white"/>
  <rect x="75" y="400" width="25" height="25" fill="black"/>
  
  <!-- Timing patterns -->
  <rect x="175" y="25" width="25" height="25" fill="black"/>
  <rect x="225" y="25" width="25" height="25" fill="black"/>
  <rect x="275" y="25" width="25" height="25" fill="black"/>
  <rect x="325" y="25" width="25" height="25" fill="black"/>
  
  <rect x="25" y="175" width="25" height="25" fill="black"/>
  <rect x="25" y="225" width="25" height="25" fill="black"/>
  <rect x="25" y="275" width="25" height="25" fill="black"/>
  <rect x="25" y="325" width="25" height="25" fill="black"/>
  
  <!-- Data modules pattern -->
  <rect x="175" y="75" width="25" height="25" fill="black"/>
  <rect x="200" y="75" width="25" height="25" fill="black"/>
  <rect x="250" y="75" width="25" height="25" fill="black"/>
  <rect x="275" y="75" width="25" height="25" fill="black"/>
  <rect x="300" y="75" width="25" height="25" fill="black"/>
  
  <rect x="175" y="100" width="25" height="25" fill="black"/>
  <rect x="225" y="100" width="25" height="25" fill="black"/>
  <rect x="275" y="100" width="25" height="25" fill="black"/>
  <rect x="300" y="100" width="25" height="25" fill="black"/>
  
  <rect x="175" y="125" width="25" height="25" fill="black"/>
  <rect x="200" y="125" width="25" height="25" fill="black"/>
  <rect x="225" y="125" width="25" height="25" fill="black"/>
  <rect x="250" y="125" width="25" height="25" fill="black"/>
  <rect x="300" y="125" width="25" height="25" fill="black"/>
  
  <!-- Middle section data -->
  <rect x="75" y="175" width="25" height="25" fill="black"/>
  <rect x="100" y="175" width="25" height="25" fill="black"/>
  <rect x="125" y="175" width="25" height="25" fill="black"/>
  <rect x="200" y="175" width="25" height="25" fill="black"/>
  <rect x="225" y="175" width="25" height="25" fill="black"/>
  <rect x="275" y="175" width="25" height="25" fill="black"/>
  <rect x="300" y="175" width="25" height="25" fill="black"/>
  <rect x="350" y="175" width="25" height="25" fill="black"/>
  <rect x="400" y="175" width="25" height="25" fill="black"/>
  <rect x="425" y="175" width="25" height="25" fill="black"/>
  <rect x="450" y="175" width="25" height="25" fill="black"/>
  
  <rect x="75" y="200" width="25" height="25" fill="black"/>
  <rect x="125" y="200" width="25" height="25" fill="black"/>
  <rect x="175" y="200" width="25" height="25" fill="black"/>
  <rect x="225" y="200" width="25" height="25" fill="black"/>
  <rect x="250" y="200" width="25" height="25" fill="black"/>
  <rect x="300" y="200" width="25" height="25" fill="black"/>
  <rect x="325" y="200" width="25" height="25" fill="black"/>
  <rect x="375" y="200" width="25" height="25" fill="black"/>
  <rect x="425" y="200" width="25" height="25" fill="black"/>
  <rect x="450" y="200" width="25" height="25" fill="black"/>
  
  <!-- Central alignment pattern -->
  <rect x="200" y="225" width="100" height="100" fill="black"/>
  <rect x="225" y="250" width="50" height="50" fill="white"/>
  <rect x="237.5" y="262.5" width="25" height="25" fill="black"/>
  
  <!-- More data patterns -->
  <rect x="75" y="275" width="25" height="25" fill="black"/>
  <rect x="100" y="275" width="25" height="25" fill="black"/>
  <rect x="125" y="275" width="25" height="25" fill="black"/>
  <rect x="150" y="275" width="25" height="25" fill="black"/>
  <rect x="325" y="275" width="25" height="25" fill="black"/>
  <rect x="350" y="275" width="25" height="25" fill="black"/>
  <rect x="375" y="275" width="25" height="25" fill="black"/>
  <rect x="400" y="275" width="25" height="25" fill="black"/>
  <rect x="425" y="275" width="25" height="25" fill="black"/>
  <rect x="450" y="275" width="25" height="25" fill="black"/>
  
  <rect x="75" y="300" width="25" height="25" fill="black"/>
  <rect x="125" y="300" width="25" height="25" fill="black"/>
  <rect x="150" y="300" width="25" height="25" fill="black"/>
  <rect x="175" y="300" width="25" height="25" fill="black"/>
  <rect x="325" y="300" width="25" height="25" fill="black"/>
  <rect x="375" y="300" width="25" height="25" fill="black"/>
  <rect x="425" y="300" width="25" height="25" fill="black"/>
  
  <!-- Bottom section -->
  <rect x="175" y="375" width="25" height="25" fill="black"/>
  <rect x="200" y="375" width="25" height="25" fill="black"/>
  <rect x="225" y="375" width="25" height="25" fill="black"/>
  <rect x="250" y="375" width="25" height="25" fill="black"/>
  <rect x="275" y="375" width="25" height="25" fill="black"/>
  <rect x="300" y="375" width="25" height="25" fill="black"/>
  <rect x="350" y="375" width="25" height="25" fill="black"/>
  <rect x="400" y="375" width="25" height="25" fill="black"/>
  <rect x="425" y="375" width="25" height="25" fill="black"/>
  <rect x="450" y="375" width="25" height="25" fill="black"/>
  
  <rect x="175" y="400" width="25" height="25" fill="black"/>
  <rect x="225" y="400" width="25" height="25" fill="black"/>
  <rect x="275" y="400" width="25" height="25" fill="black"/>
  <rect x="325" y="400" width="25" height="25" fill="black"/>
  <rect x="350" y="400" width="25" height="25" fill="black"/>
  <rect x="400" y="400" width="25" height="25" fill="black"/>
  <rect x="450" y="400" width="25" height="25" fill="black"/>
  
  <rect x="175" y="425" width="25" height="25" fill="black"/>
  <rect x="200" y="425" width="25" height="25" fill="black"/>
  <rect x="250" y="425" width="25" height="25" fill="black"/>
  <rect x="275" y="425" width="25" height="25" fill="black"/>
  <rect x="300" y="425" width="25" height="25" fill="black"/>
  <rect x="325" y="425" width="25" height="25" fill="black"/>
  <rect x="375" y="425" width="25" height="25" fill="black"/>
  <rect x="425" y="425" width="25" height="25" fill="black"/>
  
  <rect x="175" y="450" width="25" height="25" fill="black"/>
  <rect x="225" y="450" width="25" height="25" fill="black"/>
  <rect x="250" y="450" width="25" height="25" fill="black"/>
  <rect x="300" y="450" width="25" height="25" fill="black"/>
  <rect x="350" y="450" width="25" height="25" fill="black"/>
  <rect x="375" y="450" width="25" height="25" fill="black"/>
  <rect x="400" y="450" width="25" height="25" fill="black"/>
  <rect x="450" y="450" width="25" height="25" fill="black"/>
</svg>